<svg xmlns="http://www.w3.org/2000/svg" width="35.459" height="43.42" viewBox="0 0 35.459 43.42">
  <g id="Group_70" data-name="Group 70" transform="translate(-383.013 -1343.631)">
    <path id="Path_121" data-name="Path 121" d="M7916.508,6880.507h-19.793a3.425,3.425,0,0,1-3.412-3.411v-3.924a3.425,3.425,0,0,1,3.411-3.415h19.792a3.427,3.427,0,0,1,3.413,3.412v3.924a3.424,3.424,0,0,1-3.408,3.414Z" transform="translate(-7508.924 -5524.761)" fill="#f2b300"/>
    <path id="Path_122" data-name="Path 122" d="M7922.386,6872.412h-1.647a4.782,4.782,0,0,0-4.765-4.55h-19.79a4.787,4.787,0,0,0-4.778,4.779v3.922a4.787,4.787,0,0,0,4.778,4.778h19.79a4.785,4.785,0,0,0,4.776-4.778v-1.421h1.636a1.836,1.836,0,0,1,1.748,1.876,4.152,4.152,0,0,1-2.31,3.309l-13.158,5.54a6.889,6.889,0,0,0-3.98,5.995v1.5a4.784,4.784,0,0,0-3.555,4.612v8.531a4.782,4.782,0,0,0,4.778,4.775h.339a4.784,4.784,0,0,0,4.776-4.776v-8.531a4.782,4.782,0,0,0-3.611-4.626v-1.487a4.292,4.292,0,0,1,2.311-3.478l13.16-5.542a6.75,6.75,0,0,0,3.98-5.824A4.553,4.553,0,0,0,7922.386,6872.412Zm-4.364,4.15a2.069,2.069,0,0,1-2.048,2.047h-19.79a2.069,2.069,0,0,1-2.048-2.047v-3.922a2.07,2.07,0,0,1,2.048-2.049h19.79a2.07,2.07,0,0,1,2.048,2.049v3.922Zm-9.727,21.412v8.531a2.067,2.067,0,0,1-2.047,2.046h-.339a2.07,2.07,0,0,1-2.05-2.046v-8.531a2.071,2.071,0,0,1,2.05-2.048h.339A2.066,2.066,0,0,1,7908.295,6897.973Z" transform="translate(-7508.392 -5524.229)" fill="#0b093b"/>
  </g>
</svg>
