<svg xmlns="http://www.w3.org/2000/svg" width="43.336" height="32.531" viewBox="0 0 43.336 32.531">
  <g id="Group_71" data-name="Group 71" transform="translate(-723.704 -1353.069)">
    <path id="Path_123" data-name="Path 123" d="M8044.016,6905.619h-33.784a3.428,3.428,0,0,1-3.414-3.406l0-15.93a3.424,3.424,0,0,1,3.409-3.412h33.784a3.425,3.425,0,0,1,3.41,3.41v15.926a3.425,3.425,0,0,1-3.407,3.412Z" transform="translate(-7281.75 -5528.438)" fill="#f40051"/>
    <path id="Path_124" data-name="Path 124" d="M8043.481,6880.975H8009.7a4.785,4.785,0,0,0-4.778,4.776v15.922a4.786,4.786,0,0,0,4.778,4.778h13.507v4.322h-3.926a.684.684,0,0,0-.681.683v1.366a.684.684,0,0,0,.681.683H8033.9a.685.685,0,0,0,.682-.683v-1.366a.685.685,0,0,0-.682-.683h-3.926v-4.322h13.508a4.786,4.786,0,0,0,4.776-4.778h0v-15.922A4.785,4.785,0,0,0,8043.481,6880.975Zm-16.238,29.8h-1.308v-4.322h1.308Zm18.283-9.1a2.068,2.068,0,0,1-2.045,2.048H8009.7a2.07,2.07,0,0,1-2.05-2.048v-15.922a2.069,2.069,0,0,1,2.048-2.047h33.782a2.069,2.069,0,0,1,2.045,2.047Z" transform="translate(-7281.218 -5527.906)" fill="#0b093b"/>
  </g>
</svg>
