<svg xmlns="http://www.w3.org/2000/svg" width="39.581" height="39.58" viewBox="0 0 39.581 39.58">
  <g id="Group_72" data-name="Group 72" transform="translate(-1034.515 -1346.203)">
    <path id="Path_127" data-name="Path 127" d="M8299.852,6913.991h-30.029a3.424,3.424,0,0,1-3.412-3.41l0-20.256a3.426,3.426,0,0,1,3.408-3.4h30.029a3.423,3.423,0,0,1,3.41,3.411v20.246a3.423,3.423,0,0,1-3.408,3.413Z" transform="translate(-7230.53 -5529.574)" fill="#4cd5c5"/>
    <g id="Group_69" data-name="Group 69" transform="translate(1034.515 1346.203)">
      <path id="Path_128" data-name="Path 128" d="M8299.317,6871.434h-30.026a4.785,4.785,0,0,0-4.777,4.777v30.025a4.787,4.787,0,0,0,4.777,4.778h30.026a4.785,4.785,0,0,0,4.776-4.778h0v-30.025A4.785,4.785,0,0,0,8299.317,6871.434Zm2.046,34.8a2.068,2.068,0,0,1-2.046,2.048h-30.026a2.07,2.07,0,0,1-2.048-2.048v-20.253a2.07,2.07,0,0,1,2.048-2.04h30.026a2.069,2.069,0,0,1,2.046,2.05Zm0-24.552a4.775,4.775,0,0,0-2.046-.47h-30.026a4.783,4.783,0,0,0-2.048.47v-5.474a2.069,2.069,0,0,1,2.047-2.047h30.026a2.068,2.068,0,0,1,2.046,2.047Z" transform="translate(-8264.514 -6871.434)" fill="#0b093b"/>
      <path id="Path_129" data-name="Path 129" d="M8299.314,6875.856a3.072,3.072,0,1,0,3.071,3.072A3.075,3.075,0,0,0,8299.314,6875.856Zm0,4.378a1.307,1.307,0,1,1,1.307-1.305A1.314,1.314,0,0,1,8299.316,6880.235Z" transform="translate(-8273.409 -6872.674)" fill="#0b093b"/>
      <path id="Path_130" data-name="Path 130" d="M8308.719,6875.856a3.072,3.072,0,1,0,3.07,3.072A3.073,3.073,0,0,0,8308.719,6875.856Zm0,4.378a1.307,1.307,0,1,1,1.307-1.305A1.315,1.315,0,0,1,8308.721,6880.235Z" transform="translate(-8276.046 -6872.674)" fill="#0b093b"/>
    </g>
  </g>
</svg>
