<svg xmlns="http://www.w3.org/2000/svg" width="1920" height="488" viewBox="0 0 1920 488">
  <g id="Group_74" data-name="Group 74" transform="translate(0 -828.631)">
    <rect id="Rectangle_17" data-name="Rectangle 17" width="1920" height="488" transform="translate(0 828.631)" fill="#f5f5f5"/>
  </g>
  <g id="Group_75" data-name="Group 75" transform="translate(2125.886 -423.121)">
    <g id="Group_59" data-name="Group 59" transform="translate(-684.114 479.201)">
      <ellipse id="Ellipse_1" data-name="Ellipse 1" cx="4" cy="5" rx="4" ry="5" transform="translate(0.228 -0.08)" fill="#bebdce"/>
      <circle id="Ellipse_2" data-name="Ellipse 2" cx="4.565" cy="4.565" r="4.565" transform="translate(0.09 39.806)" fill="#bebdce"/>
      <circle id="Ellipse_3" data-name="Ellipse 3" cx="4.565" cy="4.565" r="4.565" transform="translate(0.09 79.819)" fill="#bebdce"/>
      <circle id="Ellipse_4" data-name="Ellipse 4" cx="4.565" cy="4.565" r="4.565" transform="translate(0.09 119.833)" fill="#bebdce"/>
      <circle id="Ellipse_5" data-name="Ellipse 5" cx="4.565" cy="4.565" r="4.565" transform="translate(0.09 159.846)" fill="#bebdce"/>
      <circle id="Ellipse_6" data-name="Ellipse 6" cx="4.565" cy="4.565" r="4.565" transform="translate(0.09 199.859)" fill="#bebdce"/>
      <circle id="Ellipse_7" data-name="Ellipse 7" cx="4.565" cy="4.565" r="4.565" transform="translate(0.09 239.873)" fill="#bebdce"/>
    </g>
    <g id="Group_60" data-name="Group 60" transform="translate(-648.605 478.993)">
      <circle id="Ellipse_8" data-name="Ellipse 8" cx="4.565" cy="4.565" r="4.565" transform="translate(0 0)" fill="#bebdce"/>
      <circle id="Ellipse_9" data-name="Ellipse 9" cx="4.565" cy="4.565" r="4.565" transform="translate(0 40.014)" fill="#bebdce"/>
      <circle id="Ellipse_10" data-name="Ellipse 10" cx="4.565" cy="4.565" r="4.565" transform="translate(0 80.027)" fill="#bebdce"/>
      <circle id="Ellipse_11" data-name="Ellipse 11" cx="4.565" cy="4.565" r="4.565" transform="translate(0 120.041)" fill="#bebdce"/>
      <circle id="Ellipse_12" data-name="Ellipse 12" cx="4.565" cy="4.565" r="4.565" transform="translate(0 160.054)" fill="#bebdce"/>
      <circle id="Ellipse_13" data-name="Ellipse 13" cx="4.565" cy="4.565" r="4.565" transform="translate(0 200.067)" fill="#bebdce"/>
      <circle id="Ellipse_14" data-name="Ellipse 14" cx="4.565" cy="4.565" r="4.565" transform="translate(0 240.081)" fill="#bebdce"/>
    </g>
    <g id="Group_61" data-name="Group 61" transform="translate(-613.186 478.993)">
      <circle id="Ellipse_15" data-name="Ellipse 15" cx="4.565" cy="4.565" r="4.565" transform="translate(0 0)" fill="#bebdce"/>
      <circle id="Ellipse_16" data-name="Ellipse 16" cx="4.565" cy="4.565" r="4.565" transform="translate(0 40.014)" fill="#bebdce"/>
      <circle id="Ellipse_17" data-name="Ellipse 17" cx="4.565" cy="4.565" r="4.565" transform="translate(0 80.027)" fill="#bebdce"/>
      <circle id="Ellipse_18" data-name="Ellipse 18" cx="4.565" cy="4.565" r="4.565" transform="translate(0 120.041)" fill="#bebdce"/>
      <circle id="Ellipse_19" data-name="Ellipse 19" cx="4.565" cy="4.565" r="4.565" transform="translate(0 160.054)" fill="#bebdce"/>
      <circle id="Ellipse_20" data-name="Ellipse 20" cx="4.565" cy="4.565" r="4.565" transform="translate(0 200.067)" fill="#bebdce"/>
      <circle id="Ellipse_21" data-name="Ellipse 21" cx="4.565" cy="4.565" r="4.565" transform="translate(0 240.081)" fill="#bebdce"/>
    </g>
    <g id="Group_62" data-name="Group 62" transform="translate(-577.768 478.993)">
      <circle id="Ellipse_22" data-name="Ellipse 22" cx="4.565" cy="4.565" r="4.565" transform="translate(0 0)" fill="#bebdce"/>
      <circle id="Ellipse_23" data-name="Ellipse 23" cx="4.565" cy="4.565" r="4.565" transform="translate(0 40.014)" fill="#bebdce"/>
      <circle id="Ellipse_24" data-name="Ellipse 24" cx="4.565" cy="4.565" r="4.565" transform="translate(0 80.027)" fill="#bebdce"/>
      <circle id="Ellipse_25" data-name="Ellipse 25" cx="4.565" cy="4.565" r="4.565" transform="translate(0 120.041)" fill="#bebdce"/>
      <circle id="Ellipse_26" data-name="Ellipse 26" cx="4.565" cy="4.565" r="4.565" transform="translate(0 160.054)" fill="#bebdce"/>
      <circle id="Ellipse_27" data-name="Ellipse 27" cx="4.565" cy="4.565" r="4.565" transform="translate(0 200.067)" fill="#bebdce"/>
      <circle id="Ellipse_28" data-name="Ellipse 28" cx="4.565" cy="4.565" r="4.565" transform="translate(0 240.081)" fill="#bebdce"/>
    </g>
    <g id="Group_63" data-name="Group 63" transform="translate(-542.349 478.993)">
      <circle id="Ellipse_29" data-name="Ellipse 29" cx="4.565" cy="4.565" r="4.565" transform="translate(0 0)" fill="#bebdce"/>
      <circle id="Ellipse_30" data-name="Ellipse 30" cx="4.565" cy="4.565" r="4.565" transform="translate(0 40.014)" fill="#bebdce"/>
      <circle id="Ellipse_31" data-name="Ellipse 31" cx="4.565" cy="4.565" r="4.565" transform="translate(0 80.027)" fill="#bebdce"/>
      <circle id="Ellipse_32" data-name="Ellipse 32" cx="4.565" cy="4.565" r="4.565" transform="translate(0 120.041)" fill="#bebdce"/>
      <circle id="Ellipse_33" data-name="Ellipse 33" cx="4.565" cy="4.565" r="4.565" transform="translate(0 160.054)" fill="#bebdce"/>
      <circle id="Ellipse_34" data-name="Ellipse 34" cx="4.565" cy="4.565" r="4.565" transform="translate(0 200.067)" fill="#bebdce"/>
      <circle id="Ellipse_35" data-name="Ellipse 35" cx="4.565" cy="4.565" r="4.565" transform="translate(0 240.081)" fill="#bebdce"/>
    </g>
    <g id="Group_64" data-name="Group 64" transform="translate(-506.93 478.993)">
      <circle id="Ellipse_36" data-name="Ellipse 36" cx="4.565" cy="4.565" r="4.565" transform="translate(0 0)" fill="#bebdce"/>
      <circle id="Ellipse_37" data-name="Ellipse 37" cx="4.565" cy="4.565" r="4.565" transform="translate(0 40.014)" fill="#bebdce"/>
      <circle id="Ellipse_38" data-name="Ellipse 38" cx="4.565" cy="4.565" r="4.565" transform="translate(0 80.027)" fill="#bebdce"/>
      <circle id="Ellipse_39" data-name="Ellipse 39" cx="4.565" cy="4.565" r="4.565" transform="translate(0 120.041)" fill="#bebdce"/>
      <circle id="Ellipse_40" data-name="Ellipse 40" cx="4.565" cy="4.565" r="4.565" transform="translate(0 160.054)" fill="#bebdce"/>
      <circle id="Ellipse_41" data-name="Ellipse 41" cx="4.565" cy="4.565" r="4.565" transform="translate(0 200.067)" fill="#bebdce"/>
      <circle id="Ellipse_42" data-name="Ellipse 42" cx="4.565" cy="4.565" r="4.565" transform="translate(0 240.081)" fill="#bebdce"/>
    </g>
  </g>
</svg>
